<?xml version="1.0" encoding="UTF-8" standalone="no"?>
<!-- Created with Inkscape (http://www.inkscape.org/) -->

<svg
   width="210mm"
   height="297mm"
   viewBox="0 0 210 297"
   version="1.1"
   id="svg5"
   inkscape:version="1.1 (c68e22c387, 2021-05-23)"
   xmlns:inkscape="http://www.inkscape.org/namespaces/inkscape"
   xmlns:sodipodi="http://sodipodi.sourceforge.net/DTD/sodipodi-0.dtd"
   xmlns="http://www.w3.org/2000/svg"
   xmlns:svg="http://www.w3.org/2000/svg">
  <sodipodi:namedview
     id="namedview7"
     pagecolor="#ffffff"
     bordercolor="#666666"
     borderopacity="1.0"
     inkscape:pageshadow="2"
     inkscape:pageopacity="0.0"
     inkscape:pagecheckerboard="0"
     inkscape:document-units="mm"
     showgrid="false"
     inkscape:zoom="0.46057099"
     inkscape:cx="396.24728"
     inkscape:cy="561.25984"
     inkscape:window-width="817"
     inkscape:window-height="746"
     inkscape:window-x="683"
     inkscape:window-y="20"
     inkscape:window-maximized="1"
     inkscape:current-layer="layer1" />
  <defs
     id="defs2" />
  <g
     inkscape:label="Layer 1"
     inkscape:groupmode="layer"
     id="layer1">
    <path
       id="rect14506"
       style="display:inline;fill:#00ff00;fill-opacity:1;stroke:none;stroke-width:1.90828"
       d="m 28.204788,81.63032 v 95.25 h 95.250002 v -95.25 z m 33.558157,10.565763 c 0.267304,0.03713 0.530392,0.09893 0.790649,0.169499 1.392439,0.406637 2.698655,1.088245 3.873667,1.934249 0.839774,0.602574 1.569403,1.348939 2.170925,2.188497 0.266615,0.339114 0.512641,0.694348 0.676963,1.09554 0.17826,0.313281 0.254074,0.69415 0.533299,0.938961 0.212508,0.06008 0.13352,0.01114 0.359669,0.04341 0.165466,-0.615846 0.396442,-1.217708 0.373105,-1.854667 -0.06251,-1.255533 -0.450749,-2.408192 -0.806153,-3.595129 0.811837,0.419507 1.624446,0.845454 2.472716,1.187007 0.270563,0.186076 0.53177,0.401202 0.802018,0.593762 0.76022,0.519423 1.397101,1.198604 1.91978,1.953369 0.263988,0.320576 0.628999,0.774945 1.1405,1.061434 0.193791,0.02395 0.250645,-0.146672 0.329178,-0.286804 0.485558,-0.875224 0.938038,-1.839182 1.800924,-2.409672 -0.145952,0.470127 -0.0776,0.900157 -0.06511,1.389579 -0.0099,0.699234 0.225031,1.074941 0.483691,1.853117 0.924194,1.823975 1.496181,3.370195 1.619541,4.496885 0.130005,1.26572 -0.143799,1.95918 -0.285256,2.82773 l -0.141594,2.64842 0.257865,2.77451 c 0,0 0.07368,1.02518 0.250632,1.94458 l 0.530717,0.0724 c 0.360363,0.10366 1.045343,0.0729 2.345077,0.13642 2.781178,0.13584 4.62998,0.64743 6.512263,1.80144 1.307121,0.80139 0.826021,0.92251 -0.665075,0.16743 -2.026978,-1.02644 -3.996603,-1.62935 -6.204273,-1.50275 l -2.659785,0.15245 -0.228409,1.22473 c -0.512596,1.57813 -0.512945,1.78998 -1.09089,2.99413 -0.367761,0.48904 -1.087443,1.55305 -1.246952,1.65003 -1.205484,1.20687 -1.200066,0.53491 -0.825791,0.18914 l 0.902787,-1.21957 c 0.187431,-0.2552 0.363167,-0.52597 0.500745,-0.81493 0.763815,-1.4683 1.299726,-3.08943 1.323433,-4.7563 0.04693,-1.05076 -0.199901,-2.07749 -0.336929,-3.10731 -0.01355,-0.25811 -0.02252,-0.51668 -0.02842,-0.77514 l -0.0072,-0.53692 c -0.0055,-0.59885 -0.0013,-1.19771 -0.0031,-1.79627 -0.03608,-0.76602 0.186555,-1.50503 0.357085,-2.24276 0.166071,-0.60913 0.161747,-1.23585 0.136427,-1.86139 -0.07671,-0.47134 -0.188333,-0.92427 -0.320911,-1.37511 -0.124566,-0.26007 -0.251245,-0.51937 -0.369488,-0.78134 -0.339875,-0.73504 -0.672957,-1.497886 -0.930693,-2.284617 -0.09776,-0.2386 -0.154897,-0.352616 -0.305406,-0.81597 -0.20489,-0.600395 -0.04102,-0.566358 -0.205155,-0.600481 -0.25037,0.04311 -0.650586,0.797086 -0.730705,1.042831 -0.298611,0.794548 -0.472723,1.586434 -0.723471,2.396237 -0.09794,-0.50059 -0.234511,-0.993768 -0.411343,-1.472263 -0.631269,-1.64048 -1.719934,-2.757694 -3.094902,-3.83129 -0.348782,-0.25418 1.43e-4,3.7e-4 -0.916739,-0.617017 0,0 -0.576948,-0.280346 -0.657842,-0.165364 -0.152537,0.30647 -0.188907,0.46277 -0.13436,0.708484 0.180617,0.727337 0.170717,1.479744 0.161747,2.223636 0.04558,1.056088 -0.396647,2.102846 -1.134298,2.850984 -0.2247,-0.635294 -0.481724,-1.26031 -0.789098,-1.860346 -0.30933,-0.539319 -0.661146,-1.056019 -1.045414,-1.544609 -0.762304,-0.885041 -1.598919,-1.7139 -2.533179,-2.417423 -0.511826,-0.355538 -0.704048,-0.53951 -1.25522,-0.831474 -0.07993,-0.03457 -0.495231,-0.173689 -0.575159,-0.208256 -0.140111,0.03131 -0.245965,0.08169 -0.382405,0.155029 -0.151371,0.233603 -0.115732,0.538078 -0.05943,0.802535 0.03852,0.546198 0.04312,1.101518 -0.02997,1.645378 -0.17934,0.866572 -0.557806,1.683431 -0.672828,2.565735 -0.106233,0.897187 -0.06553,1.823651 0.183452,2.694921 -0.233421,0.005 -0.466765,0.003 -0.700215,0.002 -0.50469,0.0373 -0.977707,-0.172 -1.407668,-0.41289 -0.347956,-0.21426 -0.684646,-0.48801 -0.892969,-0.842842 -0.195974,-0.181124 -0.24756,-0.452936 -0.33021,-0.698149 -0.129067,-0.331173 -0.469723,-0.73267 -0.727604,-1.004073 -0.19957,-0.0587 -0.536231,0.515335 -0.618051,0.671277 -0.664663,1.215367 -0.823685,2.134297 -0.874882,3.525877 -0.03538,0.84859 -0.04411,1.88852 0.184483,2.69803 0.454017,1.56576 0.472845,2.40734 0.440286,4.02404 -0.01,0.209 -0.156541,0.77858 -0.191204,1.02475 -0.23045,1.46315 -0.333296,2.64007 -0.04806,4.10259 0.38917,1.93209 0.607031,2.49807 1.648478,4.48138 0,0 1.489049,1.74993 1.629873,1.94768 0.738995,0.59055 0.901904,1.64224 0.225828,1.07953 -0.303649,-0.14517 -1.55188,-1.53292 -1.792656,-1.8123 l -0.353983,-0.47387 -0.895035,0.65681 c -0.442632,0.31518 -1.44875,1.55035 -2.235523,2.74505 -1.043726,1.58488 -2.133248,2.7743 -4.029728,4.39818 -1.429597,1.2241 -2.655319,2.26716 -2.723865,2.3182 -0.06855,0.0511 0.05052,0.21512 0.264584,0.36433 0.284313,0.19815 0.103886,0.23758 -0.669211,0.14727 -0.582083,-0.068 -3.066912,-1.03545 -5.521626,-2.15026 -4.625417,-2.10061 -6.44838,-2.64473 -7.721493,-2.30425 -1.245796,0.33318 -1.038621,0.78321 0.755509,1.64021 1.670877,0.79813 3.359469,2.1569 3.359469,2.7037 0,0.15081 -0.217575,0.077 -0.48369,-0.16381 -0.676407,-0.61213 -0.826653,-0.57339 -2.440162,0.63045 -2.542942,1.89729 -2.43592,2.49751 0.398426,2.23191 1.515649,-0.14203 2.091094,-0.0897 2.750219,0.25115 0.458433,0.23705 0.833541,0.55124 0.833541,0.69814 0,0.1774 -0.171689,0.17521 -0.511596,-0.007 -0.725882,-0.38847 -1.075904,-0.33976 -1.075904,0.14935 0,0.23266 -0.357188,0.75646 -0.79375,1.16427 -0.948844,0.88635 -1.068113,1.85208 -0.228926,1.85208 1.084728,0 2.637862,-0.60393 2.497005,-0.971 -0.204046,-0.53173 0.138504,-0.4373 2.078943,0.57413 1.68352,0.87751 3.286223,1.23942 2.929019,0.66146 -0.542692,-0.8781 1.471779,0.51758 3.350183,2.3213 0.830594,0.79758 1.463212,1.18443 1.937867,1.18443 1.132739,0 1.30356,-0.4018 0.686263,-1.61179 -0.613018,-1.20162 -0.680408,-1.833 -0.2589,-2.42311 0.227751,-0.31885 0.257783,-0.27984 0.152963,0.19844 -0.08797,0.40139 -0.0064,0.59531 0.249598,0.59531 0.593743,0 3.314448,-1.44775 5.20795,-2.77141 1.918628,-1.34122 3.540302,-2.00665 4.780586,-1.9606 0.48441,0.018 0.626883,0.0824 0.344165,0.15554 -0.329761,0.0853 -0.424976,0.26417 -0.300757,0.56483 0.378396,0.91588 0.439581,1.36581 0.185002,1.36581 -0.144838,0 -0.411382,-0.35719 -0.592212,-0.79375 -0.180829,-0.43657 -0.463105,-0.79249 -0.627351,-0.79117 -0.563829,0.005 -2.944931,1.27119 -3.738274,1.98799 -1.121208,1.01305 -2.443059,1.81497 -3.902604,2.36782 -0.691224,0.26182 -1.256771,0.56526 -1.256771,0.67437 0,0.10912 0.177941,0.5392 0.395325,0.95602 0.532807,1.02161 0.501605,1.31726 -0.189653,1.80144 -0.776883,0.54415 -1.48807,0.51827 -2.45463,-0.0889 -0.436562,-0.27423 -1.278747,-1.02352 -1.871205,-1.66553 -0.867867,-0.94045 -1.253484,-1.16843 -1.984375,-1.1715 -0.498948,-0.002 -1.658307,-0.34296 -2.576586,-0.75758 -1.669333,-0.75373 -1.669815,-0.75377 -3.065963,-0.31367 -1.712267,0.53974 -2.641573,0.55894 -3.053558,0.0625 -0.369184,-0.44483 0.103285,-1.5506 1.015441,-2.37609 0.305941,-0.27687 0.556038,-0.73099 0.556038,-1.00924 0,-0.46185 -0.17857,-0.49826 -2.050521,-0.42168 -1.913991,0.0783 -2.055921,0.0467 -2.130102,-0.47284 -0.05619,-0.39352 0.356886,-0.95551 1.41025,-1.91823 0.819421,-0.7489 1.599433,-1.36167 1.733227,-1.36167 0.133792,0 0.243396,-0.16242 0.243396,-0.36122 0,-0.19879 -0.837491,-0.73642 -1.861385,-1.19424 -2.107431,-0.94231 -2.488218,-1.46529 -1.593185,-2.19005 1.262201,-1.02206 3.712814,-0.54967 8.21707,1.58389 1.236927,0.5859 3.050209,1.356 4.029212,1.711 l 1.779736,0.64544 2.189014,-1.82521 c 2.672866,-2.22857 3.64162,-3.27999 5.103564,-5.53816 0.62125,-0.95961 1.511612,-2.04414 1.978689,-2.40968 l 0.849561,-0.66456 0.274402,-0.28628 c -0.590174,-1.16642 0.03129,0.27897 -0.980818,-2.05517 -0.571942,-2.11578 -1.198692,-2.24527 -0.564824,-7.16029 0.143959,-0.73696 0.255365,-3.04248 -0.128673,-3.74499 -0.148793,-0.53179 -0.202231,-1.09019 -0.271303,-1.63866 -0.08203,-0.91116 -0.0955,-1.83319 -0.0031,-2.74402 0.04493,-0.41027 0.102116,-0.85235 0.190685,-1.28054 0.0217,-0.18565 0.179308,-0.792153 0.288872,-0.940511 0.191149,-0.480175 0.287478,-0.522752 0.516247,-0.987537 0.169275,-0.435975 0.538083,-0.742695 0.765845,-1.144116 0.231844,-0.318115 0.546677,-0.570853 0.834056,-0.838708 0.04432,0.864476 0.190384,1.742201 0.57671,2.524393 0.300826,0.554992 0.702905,1.061208 1.175123,1.480009 0.198014,0.18505 0.475176,0.21508 0.730705,0.16123 0.08387,-0.23114 0.204859,-0.922407 0.157612,-0.746203 -0.06272,-0.278903 0.0074,-0.631702 -0.0067,-0.919324 -0.01447,-0.238919 0.01532,-0.474051 0.111104,-0.693497 0.188862,-0.845028 0.433157,-1.676205 0.644922,-2.515609 0.186417,-0.664091 0.155167,-1.370737 -0.03566,-2.02985 -0.125482,-0.524488 -0.388395,-1.012004 -0.777214,-1.388029 -0.01619,-0.01636 -0.03238,-0.03273 -0.04857,-0.04909 z m 12.896371,15.161867 c 0.07039,7.7e-4 0.143315,0.004 0.217557,0.0108 0.294089,0.0258 0.426376,0.0717 0.4377,0.1509 0.0092,0.0645 -0.01871,0.0837 -0.287838,0.2005 -0.261733,0.11361 -0.34037,0.16955 -0.425815,0.30283 -0.08349,0.13024 -0.123219,0.30775 -0.163295,0.7338 -0.07659,0.81423 -0.326838,1.4057 -0.812872,1.91875 -0.241599,0.25502 -0.41901,0.38914 -0.677995,0.51211 -0.32128,0.15255 -0.616172,0.20722 -0.917254,0.17105 -0.188804,-0.0227 -0.28021,-0.0554 -0.578776,-0.20877 -0.308528,-0.15844 -0.388901,-0.17756 -0.865066,-0.20516 -0.202018,-0.0117 -0.439195,-0.0371 -0.527098,-0.0563 -0.490569,-0.10744 -1.01823,-0.53041 -1.020612,-0.81855 -0.0011,-0.13457 0.004,-0.13568 0.787033,-0.12868 l 0.714168,0.006 0.183452,-0.0755 c 0.402082,-0.16604 0.682731,-0.37077 1.192691,-0.87075 0.812173,-0.79628 1.646404,-1.39383 2.200384,-1.57561 0.142634,-0.0468 0.332449,-0.07 0.543636,-0.0677 z m -11.595158,0.84646 c 0.540557,-0.007 1.054418,0.14661 1.460376,0.4408 0.08391,0.0608 0.259702,0.20665 0.390157,0.32453 0.590272,0.53333 1.20758,0.92078 1.851567,1.16168 0.372965,0.13952 0.652992,0.19444 1.076937,0.21084 0.292978,0.0113 0.359582,0.0201 0.392739,0.0532 0.08287,0.0829 0.07665,0.37811 -0.01188,0.54932 -0.05754,0.11127 -0.230735,0.26384 -0.385505,0.34003 -0.211506,0.10412 -0.460648,0.16173 -0.806151,0.18655 -0.374706,0.0269 -0.526992,0.0582 -0.640789,0.13178 -0.266634,0.17235 -0.407395,0.23531 -0.629936,0.2806 -0.181647,0.037 -0.49571,0.0471 -0.675929,0.0222 -0.524346,-0.0724 -1.034272,-0.44155 -1.595249,-1.156 -0.301154,-0.38355 -0.469826,-0.71777 -0.509014,-1.00666 -0.0297,-0.21896 -0.102976,-0.36792 -0.251148,-0.51263 -0.238005,-0.23245 -0.632449,-0.3788 -1.109493,-0.41186 -0.246861,-0.0171 -0.252179,-0.0184 -0.252179,-0.0729 0,-0.0453 0.02996,-0.0719 0.159678,-0.14211 0.364922,-0.19752 0.853948,-0.34251 1.302764,-0.38654 0.07806,-0.008 0.155837,-0.0119 0.233061,-0.0129 z m -3.641637,2.77192 c 0.04196,0.005 0.08525,0.0327 0.125574,0.0977 0.338963,0.54629 0.757713,1.67242 1.457274,2.19728 0.931648,0.699 1.698564,1.3639 2.659269,1.76837 0.636172,0.26784 1.952966,0.59837 2.881995,0.73949 0.327599,0.0498 1.501984,0.0124 2.097545,-0.0222 3.294293,-0.19139 5.788345,-1.00527 8.092014,-3.20135 0.644583,-0.61449 0.870897,-0.85628 0.927592,-0.85628 0.02648,0 0.164635,0.31452 -0.0052,0.60616 -0.475615,0.77789 -0.209574,0.38591 -0.475424,0.77773 -0.0013,1.43214 -0.06244,2.94027 -1.003039,4.39405 -0.580868,0.89778 -1.395399,1.7704 -2.228289,2.38693 -0.562747,0.42187 -1.225386,0.8037 -1.98334,1.04231 -0.736039,0.28764 -1.117206,0.3885 -1.900142,0.50282 -1.00883,0.14729 -1.458773,0.17189 -2.05104,0.11265 -0.802801,-0.0803 -1.116682,-0.12801 -1.593183,-0.24133 -0.637786,-0.15166 -1.587127,-0.51536 -2.212268,-0.84801 -0.573376,-0.3051 -1.25081,-0.74385 -1.495515,-0.96841 -0.110951,-0.10182 -0.195086,-0.15889 -0.259416,-0.17622 -0.100889,-0.0272 -0.15675,-0.0797 -0.415997,-0.39171 -0.07962,-0.0958 -0.505301,-0.56246 -0.617532,-0.68729 -0.22697,-0.25246 -0.3253,-0.44525 -0.546738,-0.77773 -0.193061,-0.28875 -0.448389,-0.70365 -0.538466,-1.11053 -0.197163,-0.29792 -0.48886,-1.35586 -0.48886,-1.67122 l -0.07131,-1.00975 c -0.04744,-0.78369 0.07221,-0.4157 -0.03411,-0.62012 -0.10764,-0.20697 -0.596297,-0.86262 -0.598413,-1.341 -7.94e-4,-0.018 -0.0127,-0.18177 0.04909,-0.5271 0.0191,-0.0437 0.0962,-0.15342 0.186552,-0.17312 0.01355,-0.003 0.02735,-0.004 0.04134,-0.002 z m 50.620169,9.02943 c 0.69027,-0.008 1.12083,0.24359 1.28364,0.75654 0.15568,0.4905 -0.13782,0.88874 -1.80299,2.44688 -1.83823,1.72006 -3.29955,3.48141 -3.0732,3.70468 0.0523,0.0516 0.6904,0.21475 1.418,0.36277 3.15287,0.64141 4.91756,1.17465 5.55935,1.67948 1.61875,1.27331 -0.12405,3.09068 -2.53783,2.64635 -0.64311,-0.11838 -1.67282,-0.16582 -2.28823,-0.10542 l -1.11931,0.11007 1.31775,1.51412 c 0.72455,0.83304 1.31723,1.77367 1.31723,2.0898 0,0.31613 -0.0304,0.57464 -0.0677,0.57464 -0.0373,0 -0.43942,0.10644 -0.89348,0.23668 -0.6203,0.1779 -1.09032,0.11839 -1.89033,-0.23978 -0.58561,-0.26219 -1.70041,-0.90442 -2.47685,-1.4273 -1.63154,-1.09875 -2.41733,-1.17437 -4.39766,-0.42168 -1.562995,0.59406 -2.646807,0.66696 -3.583244,0.24029 -0.522952,-0.23827 -0.872702,-0.16854 -1.988511,0.39688 -1.767192,0.8955 -3.54594,0.9374 -4.134114,0.0977 -0.587378,-0.83859 -0.522298,-1.24414 0.46147,-2.87786 l 0.873331,-1.45004 -1.145148,-0.86299 c -0.629727,-0.47471 -1.073722,-0.97799 -0.98702,-1.11828 0.0867,-0.14029 0.593058,0.10423 1.125513,0.54312 1.18051,0.97307 1.376659,0.99032 1.376659,0.12092 0,-0.384 0.114523,-0.6064 0.264584,-0.51366 0.490228,0.30298 0.269637,1.23465 -0.648023,2.73833 -1.236771,2.02659 -1.375566,2.71269 -0.677995,3.34398 0.668031,0.60456 1.326727,0.45734 4.717542,-1.05316 1.210482,-0.53923 2.268786,-0.91241 2.351794,-0.82941 0.08301,0.083 -0.170532,0.27339 -0.563274,0.42271 -0.392734,0.14932 -0.640456,0.39061 -0.550352,0.53641 0.274592,0.44429 1.391446,0.29886 3.043228,-0.39636 1.95328,-0.82214 2.27881,-0.82216 3.72845,-5.3e-4 3.21697,1.82335 4.81118,2.49362 5.30407,2.22984 0.27075,-0.1449 0.49248,-0.353 0.49248,-0.46199 0,-0.27703 -2.66414,-2.83077 -3.3073,-3.17035 -1.00217,-0.52913 0.76756,-0.92015 3.36827,-0.74414 2.48435,0.16813 3.64319,-0.11734 3.64319,-0.8971 0,-1.03437 -2.13055,-1.89385 -6.18567,-2.49546 l -1.29087,-0.1912 0.18293,0.72864 c 0.1606,0.63989 0.1325,0.68726 -0.23048,0.38602 -0.22743,-0.18875 -0.41215,-0.5968 -0.41082,-0.90641 0.005,-1.11251 1.56269,-3.31439 3.32383,-4.69842 1.29493,-1.01764 1.70838,-1.49899 1.64847,-1.91874 -0.0649,-0.45448 -0.255,-0.55568 -1.00614,-0.53589 -1.04762,0.0276 -2.16764,0.51858 -5.95312,2.60863 -2.59124,1.43068 -3.52945,1.77669 -3.14968,1.1622 0.13942,-0.22559 -0.2171,-0.25778 -1.359608,-0.1235 -0.8519,0.10011 -1.47012,0.10275 -1.37356,0.006 0.09657,-0.0966 0.05664,-0.39782 -0.08888,-0.66973 -0.181504,-0.33915 -0.176027,-0.49454 0.01757,-0.49454 0.155208,0 0.3409,0.15344 0.412896,0.34106 0.0909,0.23688 0.679799,0.33112 1.926492,0.30799 1.66657,-0.0309 1.98462,-0.1409 4.44004,-1.53117 2.55948,-1.44919 4.43215,-2.18425 5.58261,-2.1978 z m -40.455934,22.01467 c 0.315804,-0.002 0.915745,0.33502 1.719792,0.72709 2.035244,0.99243 5.288965,2.00583 6.65851,2.07377 0.766823,0.038 0.770305,0.0436 0.09405,0.14728 -0.834237,0.12787 -4.932042,-0.80369 -6.028058,-1.37046 l -0.766876,-0.39635 -1.182357,1.64951 c -1.632995,2.2784 -3.636533,3.98721 -3.995105,3.40702 -0.08714,-0.14099 0.229465,-0.49737 0.703316,-0.79168 1.267251,-0.78708 3.904154,-3.74062 3.904154,-4.37286 0,-0.0829 -0.368469,-0.34138 -0.818554,-0.57412 -0.450086,-0.23275 -0.555242,-0.26859 -0.506947,-0.37466 0.03924,-0.0862 0.112807,-0.12401 0.218075,-0.12454 z" />
  </g>
</svg>
