<?xml version="1.0" encoding="UTF-8" standalone="no"?>
<!-- Created with Inkscape (http://www.inkscape.org/) -->

<svg
   width="210mm"
   height="297mm"
   viewBox="0 0 210 297"
   version="1.1"
   id="svg5"
   inkscape:version="1.1.1 (3bf5ae0d25, 2021-09-20)"
   sodipodi:docname="inside.svg"
   xmlns:inkscape="http://www.inkscape.org/namespaces/inkscape"
   xmlns:sodipodi="http://sodipodi.sourceforge.net/DTD/sodipodi-0.dtd"
   xmlns="http://www.w3.org/2000/svg"
   xmlns:svg="http://www.w3.org/2000/svg">
  <sodipodi:namedview
     id="namedview7"
     pagecolor="#ffffff"
     bordercolor="#666666"
     borderopacity="1.0"
     inkscape:pageshadow="2"
     inkscape:pageopacity="0.0"
     inkscape:pagecheckerboard="0"
     inkscape:document-units="mm"
     showgrid="false"
     inkscape:zoom="0.46057099"
     inkscape:cx="396.24728"
     inkscape:cy="561.25984"
     inkscape:window-width="817"
     inkscape:window-height="746"
     inkscape:window-x="0"
     inkscape:window-y="20"
     inkscape:window-maximized="1"
     inkscape:current-layer="layer1" />
  <defs
     id="defs2" />
  <g
     inkscape:label="Layer 1"
     inkscape:groupmode="layer"
     id="layer1">
    <path
       id="rect53-4"
       style="display:inline;fill:#ff0000;stroke-width:0.3468"
       d="m -23.077126,22.88032 v 158.75 H 135.67287 v -158.75 z m 91.811454,21.923209 c 0.222536,0 0.841522,0.354025 1.375627,0.786516 l 0.971,0.785998 -1.881539,2.533695 c -2.130716,2.86819 -7.984972,10.181018 -14.676108,18.333249 -3.782407,4.608345 -4.460421,5.652248 -4.104143,6.317958 0.234739,0.438606 0.7812,0.797886 1.214914,0.797886 0.433716,0 3.366781,-1.703435 6.517431,-3.785299 8.143616,-5.381074 21.851433,-13.348022 22.966559,-13.348022 0.220917,0 0.752007,1.155983 1.179772,2.568834 0.745746,2.463041 0.746232,2.603204 0.0155,3.410646 -0.41916,0.463171 -4.948287,3.440623 -10.064503,6.616649 -11.257598,6.988445 -16.293061,10.633284 -16.293061,11.792562 0,1.044829 1.55848,2.171184 2.986378,2.158007 1.443749,-0.01336 9.687354,-1.691378 18.644342,-3.795117 4.004925,-0.940644 8.271712,-1.840743 9.481592,-1.999877 l 2.199349,-0.289388 2.054655,3.768762 c 1.129932,2.072884 2.809152,5.709042 3.731556,8.080126 0.922406,2.371088 1.93507,4.580853 2.250509,4.910813 0.48922,0.511751 1.038772,0.37008 3.738272,-0.963766 1.74056,-0.860026 3.63738,-1.563212 4.21525,-1.563212 1.2904,0 2.95486,1.108993 2.95486,1.968873 0,1.231829 -1.6748,3.896173 -3.16157,5.030182 -1.88186,1.435366 -8.302496,4.565616 -9.364803,4.565616 -0.435691,0 -1.084707,-0.52986 -1.442289,-1.17771 C 88.585123,92.055082 82.886129,82.282895 82.565523,82.282895 c -0.224485,0 -5.050025,1.541997 -10.722859,3.426664 -7.234628,2.403541 -10.384607,3.642646 -10.550779,4.149616 -0.130302,0.397532 0.06124,1.794786 0.425815,3.105238 0.364567,1.310454 0.957721,3.491095 1.318266,4.845698 0.360541,1.354603 0.949396,3.267559 1.308446,4.251419 l 0.652674,1.78904 2.868041,0.25683 c 6.38655,0.57201 11.771355,1.45272 12.09642,1.97869 0.576162,0.93225 2.841998,10.03731 4.775935,19.19056 1.14217,5.40581 2.059701,8.81034 2.410706,8.94571 0.311661,0.1202 3.491802,-0.95318 7.067271,-2.38539 7.121181,-2.8525 10.437231,-3.83349 10.966781,-3.24476 0.7797,0.86683 -0.54414,3.38871 -3.10422,5.91385 -2.780005,2.74209 -8.93996,6.37594 -14.494197,8.55039 -5.027972,1.96841 -4.195868,3.04508 -8.572088,-11.08667 -6.574808,-21.23146 -6.021506,-19.68711 -7.110677,-19.84168 -1.317396,-0.18695 -4.316137,0.8186 -11.447881,3.83956 -7.263244,3.07666 -14.353711,6.74404 -14.947924,7.73131 -0.901512,1.49784 2.996623,4.09201 10.523904,7.00319 4.888086,1.89047 4.87255,0.84084 0.147279,9.83403 -3.649853,6.94643 -5.126419,10.47211 -4.603853,10.99467 0.202631,0.20263 1.931238,0.64297 3.841109,0.97876 1.909877,0.33578 4.266531,1.01545 5.23689,1.5105 2.030312,1.03579 3.134467,2.82605 2.133719,3.45922 -1.225813,0.77557 -8.159787,0.40614 -12.182718,-0.64906 -3.21137,-0.84232 -6.920775,-2.13129 -7.398515,-2.5709 -0.231494,-0.21302 2.495196,-7.40842 4.778001,-12.60802 1.282125,-2.92032 2.228452,-5.57739 2.102717,-5.90506 -0.307786,-0.80207 -2.138612,-1.7084 -4.209049,-2.0836 -2.487942,-0.45086 -6.631373,-2.42076 -8.448579,-4.01629 -2.233526,-1.96106 -4.002548,-5.86955 -5.248775,-11.59774 -0.589415,-2.70922 -1.359842,-6.17883 -1.712041,-7.71012 -0.352191,-1.5313 -0.639503,-4.35053 -0.639237,-6.26525 7.93e-4,-2.50734 -0.171567,-3.62464 -0.615466,-3.99304 -0.88045,-0.730711 -14.695951,1.4552 -15.772165,2.49545 -0.719164,0.69514 -0.633659,1.16046 1.823146,9.89707 1.417933,5.04229 2.432452,9.30317 2.254125,9.46867 -0.178329,0.16551 -2.231676,1.00965 -4.562513,1.87534 -4.7239255,1.7545 -10.1124511,2.53722 -10.1094614,1.46865 0.00341,-1.2764 1.7684565,-3.3886 4.2276503,-5.05861 1.4138858,-0.96015 2.6933976,-1.94398 2.8432364,-2.18643 0.1498447,-0.24245 -0.2155957,-1.93011 -0.8123528,-3.75016 C 7.147187,108.32728 4.9116456,98.18933 5.4586001,97.765671 c 0.092183,-0.0714 2.1958249,-0.843174 4.6746509,-1.714624 7.830727,-2.752955 18.127152,-7.386412 18.557523,-8.350911 0.270449,-0.606108 -0.07365,-3.209819 -1.123962,-8.49974 -0.832785,-4.194323 -1.616439,-8.34612 -1.74098,-9.226312 l -0.226344,-1.600416 1.364259,0.584459 c 0.750308,0.32131 2.937332,1.282433 4.860168,2.135788 5.831938,2.588231 6.218976,2.317319 5.643584,-3.950663 -0.223724,-2.437204 -0.347577,-4.97354 -0.275434,-5.63635 0.128259,-1.178295 0.216556,-1.125514 3.985802,2.384867 2.120256,1.974635 4.071022,3.595497 4.335136,3.601847 0.264108,0.0063 2.641805,-2.396318 5.283401,-5.339726 4.872434,-5.429125 17.19724,-17.350361 17.937922,-17.350361 z" />
  </g>
</svg>
